# xmcd CD database file
#
# Track frame offsets:
#	150
#	13029
#	26836
#	41519
#	51056
#	69338
#	83660
#	100012
#	115254
#	129212
#	150164
#	167669
#	180980
#	195032
#	207189
#
# Disc length: 2951 seconds
#
# Revision: 1
# Processed by: cddbd v1.5.2PL0 Copyright (c) Steve Scherf et al.
# Submitted via: jetAudio 7
#
DISCID=a60b850f
DTITLE=Ski Kahn and the Looping Brothers - Aragon Mill
DYEAR=2013
DGENRE=Folk
TTITLE0=Five Days a Week
TTITLE1=Aragon Mill
TTITLE2=Wild Rose of the Mountain
TTITLE3=Goodbye Monday Blues
TTITLE4=Rock Me, Roll Me
TTITLE5=Sunday Evening
TTITLE6=Sailing to Alaska
TTITLE7=Hilda
TTITLE8=Brookside Strike
TTITLE9=Tarpaper Shacks
TTITLE10=When the Morning Breaks
TTITLE11=Blue Ridge Mountain Refugee
TTITLE12=To Hear Doc Watson Play
TTITLE13=Gone, Gonna Rise Again
TTITLE14=What Will I Leave
EXTD=
EXTT0=
EXTT1=
EXTT2=
EXTT3=
EXTT4=
EXTT5=
EXTT6=
EXTT7=
EXTT8=
EXTT9=
EXTT10=
EXTT11=
EXTT12=
EXTT13=
EXTT14=
PLAYORDER=
